# xmcd
#
# Track frame offsets:
#	150
#	11585
#	28002
#	40927
#	52290
#	69612
#	80405
#	92782
#	108675
#	126915
#	137505
#	148910
#	159262
#	171427
#	181417
#	192952
#
# Disc length: 2812 seconds
#
# Revision: 3
# Processed by: cddbd v1.5.2PL0 Copyright (c) Steve Scherf et al.
# Submitted via: EZCDAudioConverter 2.2.2.1
#
DISCID=e90afa10
DTITLE=John Lee Hooker - B-001 Boom Boom
DYEAR=1992
DGENRE=Blues
TTITLE0=Boom Boom
TTITLE1=Process
TTITLE2=Lost A Good Girl
TTITLE3=A New Leaf
TTITLE4=Blues Before Sunrise
TTITLE5=Let's Make It
TTITLE6=I Got A Letter
TTITLE7=Thelma
TTITLE8=House Rent Boogie
TTITLE9=Keep Your Hands To Yourself
TTITLE10=What Do You Say
TTITLE11=Big Legs, Tight Skirt
TTITLE12=Everybody Rockin'
TTITLE13=Onions
TTITLE14=Wheel And Deal
TTITLE15=Sadie Mae
EXTD=
EXTT0=
EXTT1=
EXTT2=
EXTT3=
EXTT4=
EXTT5=
EXTT6=
EXTT7=
EXTT8=
EXTT9=
EXTT10=
EXTT11=
EXTT12=
EXTT13=
EXTT14=
EXTT15=
PLAYORDER=
